<?xml version="1.0" encoding="UTF-8"?>
<svg id="Layer_1" data-name="Layer 1" xmlns="http://www.w3.org/2000/svg" viewBox="0 0 500 470.88">
  <defs>
    <style>
      .cls-1 {
        fill: #223f99;
      }
    </style>
  </defs>
  <path class="cls-1" d="m325.73,21.09C305.23,1.21,270.63,3.56,247.02,3.56H0v467.32h241.34c23.6,0,45.16-5.86,64.61-17.58,19.51-11.72,34.98-27.42,46.47-47.15,11.49-19.74,17.23-41.52,17.23-65.41v-124.68l-51.43,51.38v72.34c-.39,16.98-5.97,39.44-17.86,51.5-11.89,12.06-37.91,25.5-59.03,25.9H51.72V56.93h189.62c17.01,0,31.24.66,43.4,12.57,13.88,13.59,12.17,47.82,12.17,47.82l53.51-52.23c-7.75-21.29-8.59-26.91-24.7-44Z"/>
  <polygon class="cls-1" points="500 35.96 212.78 323.06 169.06 279.35 97.23 207.57 133.25 171.6 212.84 251.2 464.04 0 500 35.96"/>
</svg>