<?xml version="1.0" encoding="UTF-8"?>
<svg id="Layer_1" data-name="Layer 1" xmlns="http://www.w3.org/2000/svg" viewBox="0 0 479.79 74.31">
  <defs>
    <style>
      .cls-1 {
        fill: #ededee;
      }
    </style>
  </defs>
  <g>
    <path class="cls-1" d="m51.4,3.33c-3.23-3.14-8.69-2.77-12.42-2.77H0v73.75h38.09c3.73,0,7.13-.92,10.2-2.77,3.08-1.85,5.52-4.33,7.33-7.44,1.81-3.11,2.72-6.55,2.72-10.32v-19.68l-8.12,8.11v11.42c-.06,2.68-.94,6.22-2.82,8.13-1.88,1.9-5.98,4.02-9.32,4.09H8.16V8.98h29.92c2.68,0,4.93.1,6.85,1.98,2.19,2.15,1.92,7.55,1.92,7.55l8.45-8.24c-1.22-3.36-1.36-4.25-3.9-6.94Z"/>
    <polygon class="cls-1" points="78.91 5.68 33.58 50.98 26.68 44.08 15.34 32.76 21.03 27.08 33.59 39.64 73.23 0 78.91 5.68"/>
  </g>
  <g>
    <path class="cls-1" d="m97.4,14.61h8.86l17.15,47.91h-7.58l-5.22-14.42h-13.38l2.56-7.07h8.25l-6.2-17.12-14.02,38.61h-7.58l17.15-47.91Z"/>
    <path class="cls-1" d="m127.12,27.62h4.55v-13.01h7.11v13.01h10.75v7.11h-10.75v17.89c0,.76.3,1.42.89,1.97.59.55,1.31.82,2.14.82h7.72v7.11h-7.82c-1.84,0-3.52-.44-5.04-1.33-1.52-.89-2.73-2.08-3.64-3.57-.91-1.49-1.36-3.15-1.36-4.97v-17.92h-4.55v-7.11Z"/>
    <path class="cls-1" d="m153.57,27.62h4.55v-13.01h7.11v13.01h10.75v7.11h-10.75v17.89c0,.76.3,1.42.89,1.97.59.55,1.31.82,2.14.82h7.72v7.11h-7.82c-1.84,0-3.52-.44-5.04-1.33-1.52-.89-2.73-2.08-3.64-3.57-.91-1.49-1.36-3.15-1.36-4.97v-17.92h-4.55v-7.11Z"/>
    <path class="cls-1" d="m182.37,34.83c0-2,.73-3.7,2.19-5.1s3.21-2.11,5.26-2.11h14.55c1.86,0,3.56.45,5.07,1.36,1.52.91,2.73,2.13,3.64,3.67.91,1.54,1.36,3.24,1.36,5.1v.98c0,1.84-.45,3.52-1.36,5.04-.91,1.52-2.12,2.73-3.64,3.64-1.52.91-3.21,1.36-5.07,1.36h-10.85v-7.07h10.92c.81,0,1.5-.29,2.07-.88s.86-1.29.86-2.12v-.94c0-.85-.29-1.57-.86-2.16s-1.26-.88-2.07-.88h-14.96v17.92c0,.76.26,1.42.77,1.95.52.54,1.15.81,1.89.81h19.84v7.11h-19.84c-1.8,0-3.44-.44-4.92-1.33-1.48-.89-2.66-2.08-3.54-3.57-.88-1.49-1.31-3.14-1.31-4.94v-17.86Z"/>
    <path class="cls-1" d="m222.19,34.69c0-1.95.7-3.62,2.11-5,1.4-1.38,3.09-2.07,5.07-2.07h12.3c2.31,0,4.42.57,6.33,1.7,1.91,1.13,3.43,2.66,4.56,4.56,1.13,1.91,1.7,4.02,1.7,6.33v22.3h-7.11v-22.2c0-1.57-.53-2.91-1.6-4.01-1.07-1.1-2.36-1.65-3.89-1.65h-12.36v27.86h-7.11v-27.83Z"/>
    <path class="cls-1" d="m262.02,40.22c0-2.31.57-4.42,1.7-6.33,1.13-1.91,2.66-3.43,4.57-4.56,1.91-1.13,4.02-1.7,6.33-1.7h8.32v7.11h-8.32c-1.5,0-2.8.54-3.87,1.63s-1.62,2.4-1.62,3.93v9.63c0,1.51.54,2.8,1.62,3.87s2.37,1.62,3.87,1.62h12.37V14.61h7.11v40.8c0,1.95-.7,3.63-2.09,5.02s-3.07,2.09-5.02,2.09h-12.37c-2.31,0-4.42-.57-6.33-1.7-1.91-1.13-3.43-2.65-4.57-4.55-1.13-1.9-1.7-3.99-1.7-6.28v-9.77Z"/>
    <path class="cls-1" d="m301.84,40.15c0-2.31.57-4.41,1.7-6.3,1.13-1.89,2.65-3.4,4.57-4.53,1.91-1.13,4.02-1.7,6.33-1.7h19.47v34.9h-7.11v-27.79h-12.37c-1.51,0-2.8.53-3.87,1.6s-1.62,2.36-1.62,3.89v9.63c0,1.53.54,2.84,1.62,3.93s2.37,1.63,3.87,1.63h8.32v7.11h-8.32c-2.31,0-4.42-.57-6.33-1.7-1.91-1.13-3.43-2.66-4.57-4.56-1.13-1.91-1.7-4.02-1.7-6.33v-9.77Z"/>
    <path class="cls-1" d="m342,34.69c0-1.95.7-3.62,2.11-5,1.4-1.38,3.09-2.07,5.07-2.07h12.3c2.31,0,4.42.57,6.33,1.7,1.91,1.13,3.43,2.66,4.56,4.56,1.13,1.91,1.7,4.02,1.7,6.33v22.3h-7.11v-22.2c0-1.57-.53-2.91-1.6-4.01s-2.36-1.65-3.89-1.65h-12.36v27.86h-7.11v-27.83Z"/>
    <path class="cls-1" d="m381.82,40.22c0-2.31.58-4.42,1.75-6.33,1.17-1.91,2.73-3.43,4.68-4.56s4.12-1.7,6.5-1.7h19.64v7.11h-19.64c-1.59,0-2.96.54-4.11,1.63s-1.72,2.41-1.72,3.96v9.47c0,1.55.57,2.88,1.7,3.98s2.51,1.65,4.13,1.65h19.64v7.11h-19.64c-2.38,0-4.55-.57-6.5-1.72s-3.52-2.68-4.68-4.6c-1.17-1.92-1.75-4.04-1.75-6.35v-9.63Z"/>
    <path class="cls-1" d="m422.15,34.83c0-2,.73-3.7,2.19-5.1,1.46-1.4,3.21-2.11,5.26-2.11h14.55c1.86,0,3.56.45,5.07,1.36,1.52.91,2.73,2.13,3.64,3.67.91,1.54,1.36,3.24,1.36,5.1v.98c0,1.84-.45,3.52-1.36,5.04-.91,1.52-2.12,2.73-3.64,3.64-1.52.91-3.21,1.36-5.07,1.36h-10.85v-7.07h10.92c.81,0,1.5-.29,2.07-.88s.86-1.29.86-2.12v-.94c0-.85-.29-1.57-.86-2.16s-1.26-.88-2.07-.88h-14.96v17.92c0,.76.26,1.42.77,1.95.52.54,1.15.81,1.89.81h19.84v7.11h-19.84c-1.8,0-3.44-.44-4.92-1.33-1.48-.89-2.66-2.08-3.54-3.57-.88-1.49-1.31-3.14-1.31-4.94v-17.86Z"/>
    <path class="cls-1" d="m461.97,37.39c0-1.8.46-3.44,1.37-4.92.91-1.48,2.12-2.66,3.64-3.54,1.52-.88,3.19-1.31,5.04-1.31h7.78v7.07h-7.78c-.81,0-1.5.27-2.07.82-.57.55-.86,1.22-.86,2.01v25h-7.11v-25.13Z"/>
  </g>
</svg>